<svg width="613" height="222" viewBox="0 0 613 222" fill="none" xmlns="http://www.w3.org/2000/svg">
<g filter="url(#filter0_d_136_6625)">
<circle cx="29" cy="111.108" r="16" fill="white" fill-opacity="0.05" shape-rendering="crispEdges"/>
<circle cx="29" cy="111.108" r="15.6" stroke="white" stroke-width="0.8" stroke-dasharray="1.6 3.2" shape-rendering="crispEdges"/>
</g>
<path d="M29 92.7989L26.6906 95.1083L29 97.4177L31.3094 95.1083L29 92.7989ZM29 111.108H28.6V111.508H29V111.108ZM47.3094 111.108L45 108.799L42.6906 111.108L45 113.418L47.3094 111.108ZM28.6 95.1083V111.108H29.4V95.1083H28.6ZM29 111.508H45V110.708H29V111.508Z" fill="white"/>
<g filter="url(#filter1_d_136_6625)">
<circle cx="29" cy="29" r="16" fill="white" fill-opacity="0.05" shape-rendering="crispEdges"/>
<circle cx="29" cy="29" r="15.6" stroke="white" stroke-width="0.8" stroke-dasharray="1.6 3.2" shape-rendering="crispEdges"/>
</g>
<path d="M29 10.6905L26.6906 12.9999L29 15.3093L31.3094 12.9999L29 10.6905ZM29 28.9999H28.6V29.3999H29V28.9999ZM47.3094 28.9999L45 26.6905L42.6906 28.9999L45 31.3093L47.3094 28.9999ZM28.6 12.9999V28.9999H29.4V12.9999H28.6ZM29 29.3999H45V28.5999H29V29.3999Z" fill="white"/>
<path d="M53 110.5H146" stroke="white" stroke-opacity="0.25" stroke-dasharray="8 8"/>
<g filter="url(#filter2_d_136_6625)">
<rect x="29.5" y="168" width="31.8198" height="31.8198" transform="rotate(45 29.5 168)" fill="#9C001D"/>
<rect x="29.5" y="166.586" width="33.8198" height="33.8198" transform="rotate(45 29.5 166.586)" stroke="black" stroke-width="2"/>
</g>
<rect x="20.2601" y="181.631" width="17.2432" height="17.2432" stroke="black" stroke-width="1.33333"/>
<path d="M23.9102 184.618L28.5505 189.258L23.9102 193.898" stroke="black" stroke-width="1.33333" stroke-linejoin="round"/>
<path d="M26.5615 195.887H33.8536" stroke="black" stroke-width="1.33333" stroke-linejoin="round"/>
<path d="M56 191H159.5C163.918 191 167.5 187.418 167.5 183V130" stroke="#9C001D"/>
<path d="M56 29H159.5C163.918 29 167.5 32.5817 167.5 37V90" stroke="white" stroke-opacity="0.25" stroke-dasharray="8 8"/>
<g filter="url(#filter3_d_136_6625)">
<circle cx="168" cy="110" r="16" fill="#9C001D"/>
<circle cx="168" cy="110" r="17" stroke="black" stroke-width="2"/>
</g>
<rect x="159.333" y="101.333" width="17.3333" height="17.3333" stroke="black" stroke-width="1.33333"/>
<path d="M163 104.333L167.667 109L163 113.666" stroke="black" stroke-width="1.33333" stroke-linejoin="round"/>
<path d="M165.667 115.667H173" stroke="black" stroke-width="1.33333" stroke-linejoin="round"/>
<rect x="233.5" y="29.5" width="277" height="161" rx="7.5" stroke="white" stroke-opacity="0.25" stroke-linecap="round" stroke-dasharray="8 8"/>
<rect x="568.5" y="29.5" width="277" height="161" rx="7.5" stroke="white" stroke-opacity="0.25" stroke-linecap="round" stroke-dasharray="8 8"/>
<g filter="url(#filter4_d_136_6625)">
<rect x="369.5" y="88" width="31.8198" height="31.8198" transform="rotate(45 369.5 88)" fill="#9C001D"/>
<rect x="369.5" y="86.5858" width="33.8198" height="33.8198" transform="rotate(45 369.5 86.5858)" stroke="black" stroke-width="2"/>
</g>
<rect x="360.26" y="101.631" width="17.2432" height="17.2432" stroke="black" stroke-width="1.33333"/>
<path d="M363.91 104.618L368.551 109.258L363.91 113.898" stroke="black" stroke-width="1.33333" stroke-linejoin="round"/>
<path d="M366.562 115.887H373.854" stroke="black" stroke-width="1.33333" stroke-linejoin="round"/>
<g filter="url(#filter5_d_136_6625)">
<rect x="369.5" y="9" width="31.8198" height="31.8198" transform="rotate(45 369.5 9)" fill="#9C001D"/>
<rect x="369.5" y="7.58579" width="33.8198" height="33.8198" transform="rotate(45 369.5 7.58579)" stroke="black" stroke-width="2"/>
</g>
<path d="M377.167 30.1669H363.833C363.373 30.1669 363 30.54 363 31.0002V38.5002C363 38.9604 363.373 39.3335 363.833 39.3335H377.167C377.627 39.3335 378 38.9604 378 38.5002V31.0002C378 30.54 377.627 30.1669 377.167 30.1669Z" stroke="black" stroke-width="1.66667" stroke-linejoin="round"/>
<path d="M366.333 30.1669V26.8335C366.333 24.5323 368.199 22.6669 370.5 22.6669C372.801 22.6669 374.666 24.5323 374.666 26.8335V30.1669" stroke="black" stroke-width="1.66667" stroke-linecap="round" stroke-linejoin="round"/>
<path d="M370.5 33.5V36" stroke="black" stroke-width="1.66667" stroke-linecap="round" stroke-linejoin="round"/>
<g filter="url(#filter6_d_136_6625)">
<rect x="369.5" y="168" width="31.8198" height="31.8198" transform="rotate(45 369.5 168)" fill="#9C001D"/>
<rect x="369.5" y="166.586" width="33.8198" height="33.8198" transform="rotate(45 369.5 166.586)" stroke="black" stroke-width="2"/>
</g>
<path d="M377.167 189.167H363.833C363.373 189.167 363 189.54 363 190V197.5C363 197.96 363.373 198.334 363.833 198.334H377.167C377.627 198.334 378 197.96 378 197.5V190C378 189.54 377.627 189.167 377.167 189.167Z" stroke="black" stroke-width="1.66667" stroke-linejoin="round"/>
<path d="M366.333 189.167V185.834C366.333 183.532 368.199 181.667 370.5 181.667C372.801 181.667 374.666 183.532 374.666 185.834V189.167" stroke="black" stroke-width="1.66667" stroke-linecap="round" stroke-linejoin="round"/>
<path d="M370.5 192.5V195" stroke="black" stroke-width="1.66667" stroke-linecap="round" stroke-linejoin="round"/>
<path d="M188 110.5L342.999 111" stroke="#9C001D"/>
<path d="M531 110.5H677" stroke="white" stroke-opacity="0.25" stroke-dasharray="8 8"/>
<path d="M396 110.5H491" stroke="#9C001D"/>
<g filter="url(#filter7_d_136_6625)">
<circle cx="511" cy="110" r="16" fill="#9C001D"/>
<circle cx="511" cy="110" r="17" stroke="black" stroke-width="2"/>
</g>
<rect x="502.333" y="101.333" width="17.3333" height="17.3333" stroke="black" stroke-width="1.33333"/>
<path d="M506 104.333L510.667 109L506 113.666" stroke="black" stroke-width="1.33333" stroke-linejoin="round"/>
<path d="M508.667 115.667H516" stroke="black" stroke-width="1.33333" stroke-linejoin="round"/>
<path d="M531 110.5H560.5C564.918 110.5 568.5 114.082 568.5 118.5V182.5C568.5 186.918 572.082 190.5 576.5 190.5H685" stroke="#9C001D" stroke-linecap="square"/>
<defs>
<filter id="filter0_d_136_6625" x="9" y="91.1084" width="40" height="40" filterUnits="userSpaceOnUse" color-interpolation-filters="sRGB">
<feFlood flood-opacity="0" result="BackgroundImageFix"/>
<feColorMatrix in="SourceAlpha" type="matrix" values="0 0 0 0 0 0 0 0 0 0 0 0 0 0 0 0 0 0 127 0" result="hardAlpha"/>
<feOffset/>
<feGaussianBlur stdDeviation="2"/>
<feComposite in2="hardAlpha" operator="out"/>
<feColorMatrix type="matrix" values="0 0 0 0 1 0 0 0 0 1 0 0 0 0 1 0 0 0 1 0"/>
<feBlend mode="normal" in2="BackgroundImageFix" result="effect1_dropShadow_136_6625"/>
<feBlend mode="normal" in="SourceGraphic" in2="effect1_dropShadow_136_6625" result="shape"/>
</filter>
<filter id="filter1_d_136_6625" x="9" y="9" width="40" height="40" filterUnits="userSpaceOnUse" color-interpolation-filters="sRGB">
<feFlood flood-opacity="0" result="BackgroundImageFix"/>
<feColorMatrix in="SourceAlpha" type="matrix" values="0 0 0 0 0 0 0 0 0 0 0 0 0 0 0 0 0 0 127 0" result="hardAlpha"/>
<feOffset/>
<feGaussianBlur stdDeviation="2"/>
<feComposite in2="hardAlpha" operator="out"/>
<feColorMatrix type="matrix" values="0 0 0 0 1 0 0 0 0 1 0 0 0 0 1 0 0 0 1 0"/>
<feBlend mode="normal" in2="BackgroundImageFix" result="effect1_dropShadow_136_6625"/>
<feBlend mode="normal" in="SourceGraphic" in2="effect1_dropShadow_136_6625" result="shape"/>
</filter>
<filter id="filter2_d_136_6625" x="0.171875" y="161.172" width="58.6562" height="58.6567" filterUnits="userSpaceOnUse" color-interpolation-filters="sRGB">
<feFlood flood-opacity="0" result="BackgroundImageFix"/>
<feColorMatrix in="SourceAlpha" type="matrix" values="0 0 0 0 0 0 0 0 0 0 0 0 0 0 0 0 0 0 127 0" result="hardAlpha"/>
<feOffset/>
<feGaussianBlur stdDeviation="2"/>
<feComposite in2="hardAlpha" operator="out"/>
<feColorMatrix type="matrix" values="0 0 0 0 0.611765 0 0 0 0 0 0 0 0 0 0.113725 0 0 0 1 0"/>
<feBlend mode="normal" in2="BackgroundImageFix" result="effect1_dropShadow_136_6625"/>
<feBlend mode="normal" in="SourceGraphic" in2="effect1_dropShadow_136_6625" result="shape"/>
</filter>
<filter id="filter3_d_136_6625" x="146" y="88" width="44" height="44" filterUnits="userSpaceOnUse" color-interpolation-filters="sRGB">
<feFlood flood-opacity="0" result="BackgroundImageFix"/>
<feColorMatrix in="SourceAlpha" type="matrix" values="0 0 0 0 0 0 0 0 0 0 0 0 0 0 0 0 0 0 127 0" result="hardAlpha"/>
<feOffset/>
<feGaussianBlur stdDeviation="2"/>
<feComposite in2="hardAlpha" operator="out"/>
<feColorMatrix type="matrix" values="0 0 0 0 0.611765 0 0 0 0 0 0 0 0 0 0.113725 0 0 0 1 0"/>
<feBlend mode="normal" in2="BackgroundImageFix" result="effect1_dropShadow_136_6625"/>
<feBlend mode="normal" in="SourceGraphic" in2="effect1_dropShadow_136_6625" result="shape"/>
</filter>
<filter id="filter4_d_136_6625" x="340.172" y="81.1716" width="58.6562" height="58.6567" filterUnits="userSpaceOnUse" color-interpolation-filters="sRGB">
<feFlood flood-opacity="0" result="BackgroundImageFix"/>
<feColorMatrix in="SourceAlpha" type="matrix" values="0 0 0 0 0 0 0 0 0 0 0 0 0 0 0 0 0 0 127 0" result="hardAlpha"/>
<feOffset/>
<feGaussianBlur stdDeviation="2"/>
<feComposite in2="hardAlpha" operator="out"/>
<feColorMatrix type="matrix" values="0 0 0 0 0.611765 0 0 0 0 0 0 0 0 0 0.113725 0 0 0 1 0"/>
<feBlend mode="normal" in2="BackgroundImageFix" result="effect1_dropShadow_136_6625"/>
<feBlend mode="normal" in="SourceGraphic" in2="effect1_dropShadow_136_6625" result="shape"/>
</filter>
<filter id="filter5_d_136_6625" x="340.172" y="2.17163" width="58.6562" height="58.6567" filterUnits="userSpaceOnUse" color-interpolation-filters="sRGB">
<feFlood flood-opacity="0" result="BackgroundImageFix"/>
<feColorMatrix in="SourceAlpha" type="matrix" values="0 0 0 0 0 0 0 0 0 0 0 0 0 0 0 0 0 0 127 0" result="hardAlpha"/>
<feOffset/>
<feGaussianBlur stdDeviation="2"/>
<feComposite in2="hardAlpha" operator="out"/>
<feColorMatrix type="matrix" values="0 0 0 0 0.611765 0 0 0 0 0 0 0 0 0 0.113725 0 0 0 1 0"/>
<feBlend mode="normal" in2="BackgroundImageFix" result="effect1_dropShadow_136_6625"/>
<feBlend mode="normal" in="SourceGraphic" in2="effect1_dropShadow_136_6625" result="shape"/>
</filter>
<filter id="filter6_d_136_6625" x="340.172" y="161.172" width="58.6562" height="58.6567" filterUnits="userSpaceOnUse" color-interpolation-filters="sRGB">
<feFlood flood-opacity="0" result="BackgroundImageFix"/>
<feColorMatrix in="SourceAlpha" type="matrix" values="0 0 0 0 0 0 0 0 0 0 0 0 0 0 0 0 0 0 127 0" result="hardAlpha"/>
<feOffset/>
<feGaussianBlur stdDeviation="2"/>
<feComposite in2="hardAlpha" operator="out"/>
<feColorMatrix type="matrix" values="0 0 0 0 0.611765 0 0 0 0 0 0 0 0 0 0.113725 0 0 0 1 0"/>
<feBlend mode="normal" in2="BackgroundImageFix" result="effect1_dropShadow_136_6625"/>
<feBlend mode="normal" in="SourceGraphic" in2="effect1_dropShadow_136_6625" result="shape"/>
</filter>
<filter id="filter7_d_136_6625" x="489" y="88" width="44" height="44" filterUnits="userSpaceOnUse" color-interpolation-filters="sRGB">
<feFlood flood-opacity="0" result="BackgroundImageFix"/>
<feColorMatrix in="SourceAlpha" type="matrix" values="0 0 0 0 0 0 0 0 0 0 0 0 0 0 0 0 0 0 127 0" result="hardAlpha"/>
<feOffset/>
<feGaussianBlur stdDeviation="2"/>
<feComposite in2="hardAlpha" operator="out"/>
<feColorMatrix type="matrix" values="0 0 0 0 0.611765 0 0 0 0 0 0 0 0 0 0.113725 0 0 0 1 0"/>
<feBlend mode="normal" in2="BackgroundImageFix" result="effect1_dropShadow_136_6625"/>
<feBlend mode="normal" in="SourceGraphic" in2="effect1_dropShadow_136_6625" result="shape"/>
</filter>
</defs>
</svg>
