<svg width="289" height="76" viewBox="0 0 289 76" fill="none" xmlns="http://www.w3.org/2000/svg">
<path fill-rule="evenodd" clip-rule="evenodd" d="M53 37.9409L86.9411 3.99979L100.882 17.9409H193L206.941 3.99979L240.882 37.9409L206.941 71.882L193 57.9409H100.882L86.9411 71.882L53 37.9409Z" fill="#9C001D"/>
<path d="M220 70L252 38" stroke="#9C001D" stroke-width="8" stroke-linecap="square"/>
<path d="M73 6L41 38" stroke="#9C001D" stroke-width="8" stroke-linecap="square"/>
<path d="M252 38L220 6" stroke="#9C001D" stroke-width="8" stroke-linecap="square"/>
<path d="M41 38L73 70" stroke="#9C001D" stroke-width="8" stroke-linecap="square"/>
<path d="M38 39L39 39L39 37L38 37L38 39ZM0.666667 38C0.666666 40.9455 3.05448 43.3333 6 43.3333C8.94552 43.3333 11.3333 40.9455 11.3333 38C11.3333 35.0545 8.94552 32.6667 6 32.6667C3.05448 32.6667 0.666667 35.0545 0.666667 38ZM38 37L6 37L6 39L38 39L38 37Z" fill="#9C001D"/>
<path d="M251 39L250 39L250 37L251 37L251 39ZM288.333 38C288.333 40.9455 285.946 43.3333 283 43.3333C280.054 43.3333 277.667 40.9455 277.667 38C277.667 35.0545 280.054 32.6667 283 32.6667C285.946 32.6667 288.333 35.0545 288.333 38ZM251 37L283 37L283 39L251 39L251 37Z" fill="#9C001D"/>
<path d="M93.0742 31.0859V44H90.1211V31.0859H85.9258V28.6836H97.2695V31.0859H93.0742ZM107.43 44L105.273 39.0781C105.07 38.6094 104.785 38.2578 104.418 38.0234C104.059 37.7812 103.633 37.6602 103.141 37.6602H102.59V44H99.707V28.6836H104.172C105.016 28.6836 105.781 28.7578 106.469 28.9062C107.156 29.0469 107.742 29.2852 108.227 29.6211C108.711 29.957 109.082 30.3945 109.34 30.9336C109.605 31.4727 109.738 32.1328 109.738 32.9141C109.738 33.4766 109.656 33.9766 109.492 34.4141C109.328 34.8516 109.098 35.2305 108.801 35.5508C108.504 35.8633 108.148 36.1172 107.734 36.3125C107.328 36.5078 106.883 36.6445 106.398 36.7227C106.773 36.8008 107.117 37.0156 107.43 37.3672C107.742 37.7109 108.055 38.2109 108.367 38.8672L110.816 44H107.43ZM106.715 33.1953C106.715 32.4453 106.477 31.9062 106 31.5781C105.523 31.25 104.809 31.0859 103.855 31.0859H102.59V35.4102H103.762C104.207 35.4102 104.609 35.3633 104.969 35.2695C105.336 35.1758 105.648 35.0352 105.906 34.8477C106.164 34.6602 106.363 34.4297 106.504 34.1562C106.645 33.875 106.715 33.5547 106.715 33.1953ZM119.418 38.5742V44H116.488V38.5977L111.508 28.6836H114.707L116.957 33.418L117.988 35.7383L119.02 33.3477L121.375 28.6836H124.445L119.418 38.5742ZM147.742 44L146.898 40.9766H141.555L140.688 44H137.828L142.363 28.6836H146.395L150.93 44H147.742ZM144.262 31.4961L142.246 38.6211H146.254L144.262 31.4961ZM157.645 37.5195V35.1406H163.094V43.3086C162.391 43.6367 161.656 43.8789 160.891 44.0352C160.125 44.1914 159.293 44.2695 158.395 44.2695C157.332 44.2695 156.375 44.1055 155.523 43.7773C154.68 43.4492 153.961 42.9609 153.367 42.3125C152.773 41.6641 152.316 40.8594 151.996 39.8984C151.684 38.9375 151.527 37.8242 151.527 36.5586C151.527 35.2852 151.691 34.1445 152.02 33.1367C152.355 32.1289 152.84 31.2773 153.473 30.582C154.113 29.8789 154.895 29.3438 155.816 28.9766C156.746 28.6094 157.805 28.4258 158.992 28.4258C159.695 28.4258 160.379 28.4883 161.043 28.6133C161.715 28.7305 162.383 28.8906 163.047 29.0938V31.9414C162.469 31.668 161.828 31.4453 161.125 31.2734C160.43 31.0938 159.727 31.0039 159.016 31.0039C158.297 31.0039 157.66 31.1289 157.105 31.3789C156.559 31.6289 156.098 31.9844 155.723 32.4453C155.355 32.9062 155.074 33.4727 154.879 34.1445C154.691 34.8164 154.598 35.5742 154.598 36.418C154.598 37.2305 154.672 37.9648 154.82 38.6211C154.969 39.2695 155.207 39.8242 155.535 40.2852C155.871 40.7383 156.301 41.0859 156.824 41.3281C157.348 41.5703 157.984 41.6914 158.734 41.6914C158.914 41.6914 159.07 41.6875 159.203 41.6797C159.336 41.6641 159.461 41.6445 159.578 41.6211C159.695 41.5977 159.805 41.5703 159.906 41.5391C160.016 41.5078 160.129 41.4727 160.246 41.4336V37.5195H157.645ZM174.133 44L173.289 40.9766H167.945L167.078 44H164.219L168.754 28.6836H172.785L177.32 44H174.133ZM170.652 31.4961L168.637 38.6211H172.645L170.652 31.4961ZM179.125 31.0391V28.6836H188.805V31.0391H185.43V41.6211H188.805V44H179.125V41.6211H182.5V31.0391H179.125ZM199.234 44L195.133 34.8594L194.289 32.8906V39.2422V44H191.664V28.6836H195.203L199.387 37.8828L200.125 39.6758V32.9141V28.6836H202.75V44H199.234Z" fill="black"/>
</svg>
