<svg width="289" height="76" viewBox="0 0 289 76" fill="none" xmlns="http://www.w3.org/2000/svg">
<path fill-rule="evenodd" clip-rule="evenodd" d="M53 37.9411L86.9411 4L100.882 17.9411H193L206.941 4L240.882 37.9411L206.941 71.8822L193 57.9411H100.882L86.9411 71.8822L53 37.9411Z" fill="#38ED90"/>
<path d="M220 70L252 38" stroke="#38ED90" stroke-width="8" stroke-linecap="square"/>
<path d="M73 6L41 38" stroke="#38ED90" stroke-width="8" stroke-linecap="square"/>
<path d="M252 38L220 6" stroke="#38ED90" stroke-width="8" stroke-linecap="square"/>
<path d="M41 38L73 70" stroke="#38ED90" stroke-width="8" stroke-linecap="square"/>
<path d="M38 39L39 39L39 37L38 37L38 39ZM0.666667 38C0.666666 40.9455 3.05448 43.3333 6 43.3333C8.94552 43.3333 11.3333 40.9455 11.3333 38C11.3333 35.0545 8.94552 32.6667 6 32.6667C3.05448 32.6667 0.666667 35.0545 0.666667 38ZM38 37L6 37L6 39L38 39L38 37Z" fill="#38ED90"/>
<path d="M251 39L250 39L250 37L251 37L251 39ZM288.333 38C288.333 40.9455 285.946 43.3333 283 43.3333C280.054 43.3333 277.667 40.9455 277.667 38C277.667 35.0545 280.054 32.6667 283 32.6667C285.946 32.6667 288.333 35.0545 288.333 38ZM251 37L283 37L283 39L251 39L251 37Z" fill="#38ED90"/>
<path d="M107.086 31.1211V35.3633H112.875V37.7305H107.086V44H104.156V28.6836H113.203V31.1211H107.086ZM116.953 31.0391V28.6836H126.633V31.0391H123.258V41.6211H126.633V44H116.953V41.6211H120.328V31.0391H116.953ZM137.062 44L132.961 34.8594L132.117 32.8906V39.2422V44H129.492V28.6836H133.031L137.215 37.8828L137.953 39.6758V32.9141V28.6836H140.578V44H137.062ZM143.344 31.0391V28.6836H153.023V31.0391H149.648V41.6211H153.023V44H143.344V41.6211H146.719V31.0391H143.344ZM166.734 39.3711C166.734 40.207 166.578 40.9336 166.266 41.5508C165.961 42.168 165.531 42.6797 164.977 43.0859C164.422 43.4844 163.762 43.7812 162.996 43.9766C162.23 44.1719 161.395 44.2695 160.488 44.2695C159.684 44.2695 158.906 44.2227 158.156 44.1289C157.406 44.0352 156.664 43.8789 155.93 43.6602V40.8125C156.289 40.9375 156.664 41.0547 157.055 41.1641C157.445 41.2734 157.836 41.3711 158.227 41.457C158.625 41.5352 159.02 41.5977 159.41 41.6445C159.801 41.6914 160.18 41.7148 160.547 41.7148C161.094 41.7148 161.559 41.668 161.941 41.5742C162.324 41.4805 162.637 41.3516 162.879 41.1875C163.121 41.0234 163.297 40.8281 163.406 40.6016C163.516 40.375 163.57 40.125 163.57 39.8516C163.57 39.4766 163.461 39.1641 163.242 38.9141C163.031 38.6562 162.75 38.4297 162.398 38.2344C162.047 38.0391 161.645 37.8633 161.191 37.707C160.746 37.5508 160.289 37.3828 159.82 37.2031C159.359 37.0234 158.902 36.8203 158.449 36.5938C158.004 36.3672 157.605 36.0859 157.254 35.75C156.902 35.4141 156.617 35.0156 156.398 34.5547C156.188 34.0859 156.082 33.5234 156.082 32.8672C156.082 32.2656 156.191 31.6953 156.41 31.1562C156.629 30.6172 156.973 30.1484 157.441 29.75C157.91 29.3438 158.512 29.0234 159.246 28.7891C159.98 28.5469 160.867 28.4258 161.906 28.4258C162.211 28.4258 162.527 28.4414 162.855 28.4727C163.191 28.4961 163.52 28.5312 163.84 28.5781C164.168 28.6172 164.48 28.668 164.777 28.7305C165.082 28.7852 165.359 28.8438 165.609 28.9062V31.543C165.359 31.4492 165.086 31.3633 164.789 31.2852C164.492 31.207 164.184 31.1406 163.863 31.0859C163.551 31.0234 163.234 30.9766 162.914 30.9453C162.594 30.9141 162.289 30.8984 162 30.8984C161.492 30.8984 161.062 30.9414 160.711 31.0273C160.359 31.1055 160.07 31.2188 159.844 31.3672C159.617 31.5078 159.453 31.6836 159.352 31.8945C159.25 32.1055 159.199 32.3398 159.199 32.5977C159.199 32.918 159.305 33.1953 159.516 33.4297C159.734 33.6562 160.02 33.8633 160.371 34.0508C160.73 34.2305 161.133 34.4023 161.578 34.5664C162.031 34.7227 162.492 34.8945 162.961 35.082C163.438 35.2617 163.898 35.4688 164.344 35.7031C164.797 35.9375 165.199 36.2227 165.551 36.5586C165.91 36.8945 166.195 37.293 166.406 37.7539C166.625 38.207 166.734 38.7461 166.734 39.3711ZM177.176 44V37.332H171.973V44H169.09V28.6836H171.973V34.8359H177.176V28.6836H180.059V44H177.176Z" fill="black"/>
</svg>
