<svg width="109" height="601" viewBox="0 0 109 601" fill="none" xmlns="http://www.w3.org/2000/svg">
<path d="M79.7311 463.213V454.451L107.771 426.411V321.263" stroke="#38ED90" stroke-opacity="0.25" stroke-width="2"/>
<path d="M52.5671 564.855H49.0622L43.3667 572.303" stroke="#38ED90" stroke-width="2"/>
<path d="M42.4905 564.855H38.9855L33.29 572.303" stroke="#38ED90" stroke-width="2"/>
<path d="M33.7285 564.855H30.2236L24.5281 572.303" stroke="#38ED90" stroke-width="2"/>
<path d="M105.579 454.451L93.7502 466.28V535.064L82.3592 546.455V563.542L45.9955 599.905H0.869519" stroke="#38ED90" stroke-width="2"/>
<path d="M79.7311 137.693V146.455L107.771 174.495V279.643" stroke="#38ED90" stroke-opacity="0.25" stroke-width="2"/>
<path d="M52.5671 36.0496H49.0622L43.3667 28.6016" stroke="#38ED90" stroke-width="2"/>
<path d="M42.4905 36.0496H38.9855L33.29 28.6016" stroke="#38ED90" stroke-width="2"/>
<path d="M33.7285 36.0496H30.2236L24.5281 28.6016" stroke="#38ED90" stroke-width="2"/>
<path d="M105.579 146.455L93.7502 134.625V65.8412L82.3592 54.4501V37.3636L45.9955 0.999925H0.869519" stroke="#38ED90" stroke-width="2"/>
</svg>
