<svg width="93" height="518" viewBox="0 0 93 518" fill="none" xmlns="http://www.w3.org/2000/svg">
<path d="M25.1311 398.787V391.246L1 367.115V276.623" stroke="#FD9C26" stroke-opacity="0.25" stroke-width="2"/>
<path d="M48.5083 486.262H51.5247L56.4263 492.672" stroke="#FD9C26" stroke-width="2"/>
<path d="M57.1807 486.262H60.1971L65.0987 492.672" stroke="#FD9C26" stroke-width="2"/>
<path d="M64.7212 486.262H67.7376L72.6392 492.672" stroke="#FD9C26" stroke-width="2"/>
<path d="M2.88525 391.246L13.0656 401.426V460.623L22.8689 470.426V485.131L54.1639 516.426H93" stroke="#FD9C26" stroke-width="2"/>
<path d="M25.1311 118.639V126.18L1 150.311V240.803" stroke="#FD9C26" stroke-opacity="0.25" stroke-width="2"/>
<path d="M48.5083 31.1641H51.5247L56.4263 24.7542" stroke="#FD9C26" stroke-width="2"/>
<path d="M57.1807 31.1641H60.1971L65.0987 24.7542" stroke="#FD9C26" stroke-width="2"/>
<path d="M64.7212 31.1641H67.7376L72.6392 24.7542" stroke="#FD9C26" stroke-width="2"/>
<path d="M2.88525 126.18L13.0656 116V56.8031L22.8689 46.9998V32.2949L54.1639 0.999849H93" stroke="#FD9C26" stroke-width="2"/>
</svg>
