<svg width="109" height="601" viewBox="0 0 109 601" fill="none" xmlns="http://www.w3.org/2000/svg">
<path d="M30.0082 463.213V454.451L1.96875 426.411V321.263" stroke="#38ED90" stroke-opacity="0.25" stroke-width="2"/>
<path d="M57.1721 564.855H60.6771L66.3726 572.303" stroke="#38ED90" stroke-width="2"/>
<path d="M67.2488 564.855H70.7537L76.4492 572.303" stroke="#38ED90" stroke-width="2"/>
<path d="M76.0105 564.855H79.5154L85.2109 572.303" stroke="#38ED90" stroke-width="2"/>
<path d="M4.15991 454.451L15.9891 466.28V535.064L27.3801 546.455V563.542L63.7437 599.905H108.87" stroke="#38ED90" stroke-width="2"/>
<path d="M30.0082 137.693V146.455L1.96875 174.495V279.643" stroke="#38ED90" stroke-opacity="0.25" stroke-width="2"/>
<path d="M57.1721 36.0496H60.6771L66.3726 28.6016" stroke="#38ED90" stroke-width="2"/>
<path d="M67.2488 36.0496H70.7537L76.4492 28.6016" stroke="#38ED90" stroke-width="2"/>
<path d="M76.0105 36.0496H79.5154L85.2109 28.6016" stroke="#38ED90" stroke-width="2"/>
<path d="M4.15991 146.455L15.9891 134.625V65.8412L27.3801 54.4501V37.3636L63.7437 0.999925H108.87" stroke="#38ED90" stroke-width="2"/>
</svg>
