<svg width="62" height="287" viewBox="0 0 62 287" fill="none" xmlns="http://www.w3.org/2000/svg">
<path d="M50.4167 281.5C50.4167 284.446 52.8045 286.833 55.75 286.833C58.6955 286.833 61.0833 284.446 61.0833 281.5C61.0833 278.554 58.6955 276.167 55.75 276.167C52.8045 276.167 50.4167 278.554 50.4167 281.5ZM1.75 281.5L0.75 281.5L0.75 282.5H1.75V281.5ZM1.75 6V5H0.75L0.75 6L1.75 6ZM50.4167 6C50.4167 8.94552 52.8045 11.3333 55.75 11.3333C58.6955 11.3333 61.0833 8.94552 61.0833 6C61.0833 3.05448 58.6955 0.666667 55.75 0.666667C52.8045 0.666667 50.4167 3.05448 50.4167 6ZM55.75 281.5V280.5H1.75V281.5V282.5H55.75V281.5ZM1.75 281.5L2.75 281.5L2.75 6L1.75 6L0.75 6L0.75 281.5L1.75 281.5ZM1.75 6V7H55.75V6V5H1.75V6Z" fill="#38ED90"/>
</svg>
