<svg width="62" height="287" viewBox="0 0 62 287" fill="none" xmlns="http://www.w3.org/2000/svg">
<path d="M11.5833 281.5C11.5833 284.446 9.19552 286.833 6.25 286.833C3.30448 286.833 0.916667 284.446 0.916667 281.5C0.916667 278.554 3.30448 276.167 6.25 276.167C9.19552 276.167 11.5833 278.554 11.5833 281.5ZM60.25 281.5L61.25 281.5L61.25 282.5H60.25V281.5ZM60.25 6V5H61.25L61.25 6L60.25 6ZM11.5833 6C11.5833 8.94552 9.19552 11.3333 6.25 11.3333C3.30448 11.3333 0.916667 8.94552 0.916667 6C0.916667 3.05448 3.30448 0.666667 6.25 0.666667C9.19552 0.666667 11.5833 3.05448 11.5833 6ZM6.25 281.5V280.5H60.25V281.5V282.5H6.25V281.5ZM60.25 281.5L59.25 281.5L59.25 6L60.25 6L61.25 6L61.25 281.5L60.25 281.5ZM60.25 6V7H6.25V6V5H60.25V6Z" fill="#38ED90"/>
</svg>
