<svg width="93" height="518" viewBox="0 0 93 518" fill="none" xmlns="http://www.w3.org/2000/svg">
<path d="M67.8689 398.787V391.246L92 367.115V276.623" stroke="#FD9C26" stroke-opacity="0.25" stroke-width="2"/>
<path d="M44.4922 486.262H41.4758L36.5742 492.672" stroke="#FD9C26" stroke-width="2"/>
<path d="M35.8193 486.262H32.8029L27.9013 492.672" stroke="#FD9C26" stroke-width="2"/>
<path d="M28.2783 486.262H25.2619L20.3603 492.672" stroke="#FD9C26" stroke-width="2"/>
<path d="M90.1143 391.246L79.9339 401.426V460.623L70.1307 470.426V485.131L38.8356 516.426H-0.000495702" stroke="#FD9C26" stroke-width="2"/>
<path d="M67.8689 118.639V126.18L92 150.311V240.803" stroke="#FD9C26" stroke-opacity="0.25" stroke-width="2"/>
<path d="M44.4922 31.1641H41.4758L36.5742 24.7542" stroke="#FD9C26" stroke-width="2"/>
<path d="M35.8193 31.1641H32.8029L27.9013 24.7542" stroke="#FD9C26" stroke-width="2"/>
<path d="M28.2783 31.1641H25.2619L20.3603 24.7542" stroke="#FD9C26" stroke-width="2"/>
<path d="M90.1143 126.18L79.9339 116V56.8031L70.1307 46.9998V32.2949L38.8356 0.999849H-0.000495702" stroke="#FD9C26" stroke-width="2"/>
</svg>
