<svg width="93" height="518" viewBox="0 0 93 518" fill="none" xmlns="http://www.w3.org/2000/svg">
<path d="M25.1311 398.787V391.246L1 367.115V276.623" stroke="#9C001D" stroke-opacity="0.25" stroke-width="2"/>
<path d="M48.5078 486.262H51.5242L56.4258 492.672" stroke="#9C001D" stroke-width="2"/>
<path d="M57.1807 486.262H60.1971L65.0987 492.672" stroke="#9C001D" stroke-width="2"/>
<path d="M64.7217 486.262H67.7381L72.6397 492.672" stroke="#9C001D" stroke-width="2"/>
<path d="M2.88574 391.246L13.0661 401.426V460.623L22.8693 470.426V485.131L54.1644 516.426H93.0005" stroke="#9C001D" stroke-width="2"/>
<path d="M25.1311 118.639V126.18L1 150.311V240.803" stroke="#9C001D" stroke-opacity="0.25" stroke-width="2"/>
<path d="M48.5078 31.1639H51.5242L56.4258 24.7541" stroke="#9C001D" stroke-width="2"/>
<path d="M57.1807 31.1639H60.1971L65.0987 24.7541" stroke="#9C001D" stroke-width="2"/>
<path d="M64.7217 31.1639H67.7381L72.6397 24.7541" stroke="#9C001D" stroke-width="2"/>
<path d="M2.88574 126.18L13.0661 116V56.8032L22.8693 47V32.2951L54.1644 0.999971H93.0005" stroke="#9C001D" stroke-width="2"/>
</svg>
