<svg width="96" height="222" viewBox="0 0 96 222" fill="none" xmlns="http://www.w3.org/2000/svg">
<path d="M78 51.75L67 63.75V159.75L78 171.75" stroke="#38ED90" stroke-width="2"/>
<rect x="1" y="100.75" width="22" height="22" rx="11" stroke="#38ED90" stroke-width="2"/>
<path d="M20 111.75C20 116.168 16.4183 119.75 12 119.75C7.58172 119.75 4 116.168 4 111.75C4 107.332 7.58172 103.75 12 103.75C16.4183 103.75 20 107.332 20 111.75ZM8.8 111.75C8.8 113.517 10.2327 114.95 12 114.95C13.7673 114.95 15.2 113.517 15.2 111.75C15.2 109.983 13.7673 108.55 12 108.55C10.2327 108.55 8.8 109.983 8.8 111.75Z" fill="#38ED90"/>
<path d="M17.5 111.75H67" stroke="#38ED90" stroke-width="2"/>
<path d="M95 220.75L78 206.607V14.8929L92.5 0.75" stroke="#38ED90" stroke-width="2"/>
</svg>
