<svg width="219" height="103" viewBox="0 0 219 103" fill="none" xmlns="http://www.w3.org/2000/svg">
<rect width="219" height="103" fill="#1E1E1E"/>
<path d="M-1420 -411C-1420 -412.105 -1419.1 -413 -1418 -413H10901C10902.1 -413 10903 -412.105 10903 -411V900C10903 901.104 10902.1 902 10901 902H-1418C-1419.1 902 -1420 901.105 -1420 900V-411Z" fill="#444444"/>
<path d="M-1418 -413V-412H10901V-413V-414H-1418V-413ZM10903 -411H10902V900H10903H10904V-411H10903ZM10901 902V901H-1418V902V903H10901V902ZM-1420 900H-1419V-411H-1420H-1421V900H-1420ZM-1418 902V901C-1418.55 901 -1419 900.552 -1419 900H-1420H-1421C-1421 901.657 -1419.66 903 -1418 903V902ZM10903 900H10902C10902 900.552 10901.6 901 10901 901V902V903C10902.7 903 10904 901.657 10904 900H10903ZM10901 -413V-412C10901.6 -412 10902 -411.552 10902 -411H10903H10904C10904 -412.657 10902.7 -414 10901 -414V-413ZM-1418 -413V-414C-1419.66 -414 -1421 -412.657 -1421 -411H-1420H-1419C-1419 -411.552 -1418.55 -412 -1418 -412V-413Z" fill="white" fill-opacity="0.1"/>
<g clip-path="url(#clip0_87_2)" filter="url(#filter0_i_87_2)">
<rect width="1440" height="983" transform="translate(-1174 -181)" fill="black"/>
<rect x="-14.5" y="-48.5" width="248" height="152" fill="black"/>
<rect x="-14.5" y="-48.5" width="248" height="152" stroke="#38ED90"/>
<path d="M1 103C1 102.133 1 70.4969 1 54.7871" stroke="white"/>
<path d="M7 103C7 101.956 7 63.8487 7 44.9255" stroke="#9C001D"/>
<path d="M13 103C13 102.389 13 80.1002 13 69.032" stroke="white"/>
<path d="M19 103C19 102.055 19 67.5422 19 50.4043" stroke="#00FFFF"/>
<path d="M25 103C25 102.271 25 75.668 25 62.4575" stroke="white"/>
<path d="M31 103C31 102.606 31 88.2258 31 81.085" stroke="white"/>
<path d="M37 103C37 101.464 37 45.3811 37 17.532" stroke="#00FFFF"/>
<path d="M43 103C43 101.976 43 64.5873 43 46.0212" stroke="white"/>
<path d="M49 103C49 101.956 49 63.8487 49 44.9255" stroke="white"/>
<path d="M55 103C55 101.798 55 57.9389 55 36.1594" stroke="#9C001D"/>
<path d="M61 103C61 102.724 61 92.658 61 87.6594" stroke="#00FFFF"/>
<path d="M67 103C67 101.365 67 41.6876 67 12.0532" stroke="white"/>
<path d="M73 103C73 102.232 73 74.1904 73 60.2659" stroke="white"/>
<path d="M79 103C79 102.508 79 84.5325 79 75.6064" stroke="#00FFFF"/>
<path d="M85 103C85 102.133 85 70.4969 85 54.7871" stroke="white"/>
<path d="M91 103C91 102.606 91 88.2258 91 81.085" stroke="white"/>
<path d="M97 103C97 102.389 97 80.1002 97 69.032" stroke="white"/>
<path d="M103 103C103 102.113 103 69.7582 103 53.6914" stroke="#9C001D"/>
<path d="M109 103C109 102.35 109 78.6229 109 66.8406" stroke="white"/>
<path d="M115 103C115 102.586 115 87.4874 115 79.9895" stroke="#00FFFF"/>
<path d="M121 103C121 101.661 121 52.7683 121 28.4895" stroke="#00FFFF"/>
<path d="M127 103C127 101.542 127 48.336 127 21.915" stroke="#00FFFF"/>
<path d="M133 103C133 101.759 133 56.4616 133 33.968" stroke="#9C001D"/>
<path d="M139 103C139 101.424 139 43.9038 139 15.3406" stroke="white"/>
<path d="M145 103C145 101.148 145 33.5618 145 0" stroke="#9C001D"/>
<path d="M151 103C151 101.857 151 60.1551 151 39.4468" stroke="#9C001D"/>
<path d="M157 103C157 102.133 157 70.4969 157 54.7871" stroke="white"/>
<path d="M163 103C163 102.33 163 77.884 163 65.7446" stroke="white"/>
<path d="M169 103C169 101.779 169 57.2005 169 35.064" stroke="white"/>
<path d="M175 103C175 101.621 175 51.2907 175 26.2979" stroke="#00FFFF"/>
<path d="M181 103C181 102.015 181 66.0649 181 48.2129" stroke="white"/>
<path d="M187 103C187 102.468 187 83.0551 187 73.415" stroke="#9C001D"/>
<path d="M193 103C193 101.976 193 64.5873 193 46.0212" stroke="white"/>
<path d="M199 103C199 102.133 199 70.4969 199 54.7871" stroke="white"/>
<path d="M205 103C205 102.901 205 99.3064 205 97.5212" stroke="#00FFFF"/>
<path d="M211 103C211 102.311 211 77.1453 211 64.6489" stroke="white"/>
<path d="M217 103C217.018 101.867 217.674 60.5245 218 39.9946" stroke="white"/>
</g>
<path d="M-654.5 61C-654.5 59.8954 -655.395 59 -656.5 59C-657.605 59 -658.5 59.8954 -658.5 61H-654.5ZM1225.46 1332.91C1226.24 1333.7 1227.5 1333.7 1228.28 1332.91L1241.01 1320.19C1241.79 1319.41 1241.79 1318.14 1241.01 1317.36C1240.23 1316.58 1238.96 1316.58 1238.18 1317.36L1226.87 1328.67L1215.56 1317.36C1214.77 1316.58 1213.51 1316.58 1212.73 1317.36C1211.95 1318.14 1211.95 1319.41 1212.73 1320.19L1225.46 1332.91ZM-656.5 61H-658.5V1013H-656.5H-654.5V61H-656.5ZM-632.5 1037V1039H1202.87V1037V1035H-632.5V1037ZM1226.87 1061H1224.87V1331.5H1226.87H1228.87V1061H1226.87ZM1202.87 1037V1039C1215.02 1039 1224.87 1048.85 1224.87 1061H1226.87H1228.87C1228.87 1046.64 1217.23 1035 1202.87 1035V1037ZM-656.5 1013H-658.5C-658.5 1027.36 -646.859 1039 -632.5 1039V1037V1035C-644.65 1035 -654.5 1025.15 -654.5 1013H-656.5Z" fill="#00FFFF"/>
<path d="M-595 17C-596.105 17 -597 17.8954 -597 19C-597 20.1046 -596.105 21 -595 21V17ZM-3.42975 1332.91C-2.64874 1333.7 -1.38239 1333.7 -0.601379 1332.91L12.1266 1320.19C12.9076 1319.41 12.9076 1318.14 12.1266 1317.36C11.3455 1316.58 10.0792 1316.58 9.29816 1317.36L-2.01556 1328.67L-13.3293 1317.36C-14.1104 1316.58 -15.3766 1316.58 -16.1577 1317.36C-16.9387 1318.14 -16.9387 1319.41 -16.1577 1320.19L-3.42975 1332.91ZM-595 19V21H-26.0156V19V17H-595V19ZM-2.01556 43H-4.01556V1331.5H-2.01556H-0.015564V43H-2.01556ZM-26.0156 19V21C-13.8653 21 -4.01556 30.8497 -4.01556 43H-2.01556H-0.015564C-0.015564 28.6406 -11.6561 17 -26.0156 17V19Z" fill="#00FFFF"/>
<path d="M-912.5 18C-911.395 18 -910.5 17.1046 -910.5 16C-910.5 14.8954 -911.395 14 -912.5 14V18ZM2270.59 1941.99C2269.8 1941.21 2268.54 1941.21 2267.76 1941.99L2255.03 1954.72C2254.25 1955.5 2254.25 1956.77 2255.03 1957.55C2255.81 1958.33 2257.08 1958.33 2257.86 1957.55L2269.17 1946.23L2280.49 1957.55C2281.27 1958.33 2282.53 1958.33 2283.31 1957.55C2284.09 1956.77 2284.09 1955.5 2283.31 1954.72L2270.59 1941.99ZM-912.5 16V14H-1667V16V18H-912.5V16ZM-1691 40H-1693V2129H-1691H-1689V40H-1691ZM-1667 2153V2155H2245.17V2153V2151H-1667V2153ZM2269.17 2129H2271.17V1943.41H2269.17H2267.17V2129H2269.17ZM2245.17 2153V2155C2259.53 2155 2271.17 2143.36 2271.17 2129H2269.17H2267.17C2267.17 2141.15 2257.32 2151 2245.17 2151V2153ZM-1691 2129H-1693C-1693 2143.36 -1681.36 2155 -1667 2155V2153V2151C-1679.15 2151 -1689 2141.15 -1689 2129H-1691ZM-1667 16V14C-1681.36 14 -1693 25.6406 -1693 40H-1691H-1689C-1689 27.8497 -1679.15 18 -1667 18V16Z" fill="#00FFFF"/>
<defs>
<filter id="filter0_i_87_2" x="-1174" y="-181" width="1440" height="987" filterUnits="userSpaceOnUse" color-interpolation-filters="sRGB">
<feFlood flood-opacity="0" result="BackgroundImageFix"/>
<feBlend mode="normal" in="SourceGraphic" in2="BackgroundImageFix" result="shape"/>
<feColorMatrix in="SourceAlpha" type="matrix" values="0 0 0 0 0 0 0 0 0 0 0 0 0 0 0 0 0 0 127 0" result="hardAlpha"/>
<feMorphology radius="59" operator="erode" in="SourceAlpha" result="effect1_innerShadow_87_2"/>
<feOffset dy="4"/>
<feGaussianBlur stdDeviation="125"/>
<feComposite in2="hardAlpha" operator="arithmetic" k2="-1" k3="1"/>
<feColorMatrix type="matrix" values="0 0 0 0 0 0 0 0 0 0 0 0 0 0 0 0 0 0 0.25 0"/>
<feBlend mode="normal" in2="shape" result="effect1_innerShadow_87_2"/>
</filter>
<clipPath id="clip0_87_2">
<rect width="1440" height="983" fill="white" transform="translate(-1174 -181)"/>
</clipPath>
</defs>
</svg>
