<svg width="25" height="28" viewBox="0 0 25 28" fill="none" xmlns="http://www.w3.org/2000/svg">
<g clip-path="url(#clip0_129_1582)">
<path d="M0 9.98279V20.6159L12.1831 28L24.4576 20.8205V6.80318L12.1831 0L0 6.83785V9.98279Z" fill="#F6F6F6"/>
<path d="M2.12012 9.18115V19.2866C2.12012 19.3162 2.29432 19.6908 2.33491 19.7483L11.3376 24.9946V14.8892C11.3376 14.7404 11.0382 14.2533 10.8573 14.1857L2.12012 9.18115Z" fill="#111111"/>
<path d="M2.12012 9.18115V19.6671L11.3376 24.9946V14.4241L2.12012 9.18115Z" fill="#111111"/>
<path d="M7.0249 5.37573V9.73416L13.4518 13.4093L13.5346 20.7909L17.088 22.8805V11.1574L7.0249 5.37573Z" fill="#111111"/>
<path d="M12.3521 2.16235V6.52078L18.7789 10.1959L18.8618 17.5775L22.4152 19.6671V7.944L12.3521 2.16235Z" fill="#111111"/>
</g>
<defs>
<clipPath id="clip0_129_1582">
<rect width="24.4576" height="28" fill="white"/>
</clipPath>
</defs>
</svg>
