<svg width="289" height="76" viewBox="0 0 289 76" fill="none" xmlns="http://www.w3.org/2000/svg">
<path d="M240.882 37.9414L206.941 71.8818L193.001 57.9414H100.882L86.9414 71.8818L53 37.9414L86.9414 4L100.883 17.9414H193L206.941 4L240.882 37.9414Z" fill="#FD9C26" fill-opacity="0.25"/>
<path d="M220 70L252 38" stroke="#FD9C26" stroke-width="8" stroke-linecap="square"/>
<path d="M73 6L41 38" stroke="#FD9C26" stroke-width="8" stroke-linecap="square"/>
<path d="M252 38L220 6" stroke="#FD9C26" stroke-opacity="0.25" stroke-width="8" stroke-linecap="square"/>
<path d="M41 38L73 70" stroke="#FD9C26" stroke-opacity="0.25" stroke-width="8" stroke-linecap="square"/>
<path d="M38 39L39 39L39 37L38 37L38 39ZM0.666667 38C0.666666 40.9455 3.05448 43.3333 6 43.3333C8.94552 43.3333 11.3333 40.9455 11.3333 38C11.3333 35.0545 8.94552 32.6667 6 32.6667C3.05448 32.6667 0.666667 35.0545 0.666667 38ZM38 38L38 37L6 37L6 38L6 39L38 39L38 38Z" fill="#FD9C26" fill-opacity="0.25"/>
<path d="M251 39L250 39L250 37L251 37L251 39ZM288.333 38C288.333 40.9455 285.946 43.3333 283 43.3333C280.054 43.3333 277.667 40.9455 277.667 38C277.667 35.0545 280.054 32.6667 283 32.6667C285.946 32.6667 288.333 35.0545 288.333 38ZM251 38L251 37L283 37L283 38L283 39L251 39L251 38Z" fill="#FD9C26" fill-opacity="0.25"/>
<path d="M104.211 33.5586C104.211 34.3555 104.078 35.0938 103.812 35.7734C103.547 36.4453 103.152 37.0273 102.629 37.5195C102.105 38.0117 101.453 38.3945 100.672 38.668C99.8906 38.9414 98.9844 39.0781 97.9531 39.0781H96.4883V44H93.582V28.6836H98.0703C99.0625 28.6836 99.9375 28.793 100.695 29.0117C101.461 29.2227 102.102 29.5352 102.617 29.9492C103.141 30.3633 103.535 30.875 103.801 31.4844C104.074 32.0859 104.211 32.7773 104.211 33.5586ZM101.188 33.7578C101.188 33.3516 101.121 32.9844 100.988 32.6562C100.863 32.3203 100.668 32.0352 100.402 31.8008C100.145 31.5664 99.8164 31.3867 99.418 31.2617C99.0195 31.1367 98.5469 31.0742 98 31.0742H96.4883V36.6875H98.0938C98.5938 36.6875 99.0352 36.6211 99.418 36.4883C99.8008 36.3477 100.121 36.1484 100.379 35.8906C100.645 35.6328 100.844 35.3242 100.977 34.9648C101.117 34.6055 101.188 34.2031 101.188 33.7578ZM114.395 44V37.332H109.191V44H106.309V28.6836H109.191V34.8359H114.395V28.6836H117.277V44H114.395ZM127.625 44L125.469 39.0781C125.266 38.6094 124.98 38.2578 124.613 38.0234C124.254 37.7812 123.828 37.6602 123.336 37.6602H122.785V44H119.902V28.6836H124.367C125.211 28.6836 125.977 28.7578 126.664 28.9062C127.352 29.0469 127.938 29.2852 128.422 29.6211C128.906 29.957 129.277 30.3945 129.535 30.9336C129.801 31.4727 129.934 32.1328 129.934 32.9141C129.934 33.4766 129.852 33.9766 129.688 34.4141C129.523 34.8516 129.293 35.2305 128.996 35.5508C128.699 35.8633 128.344 36.1172 127.93 36.3125C127.523 36.5078 127.078 36.6445 126.594 36.7227C126.969 36.8008 127.312 37.0156 127.625 37.3672C127.938 37.7109 128.25 38.2109 128.562 38.8672L131.012 44H127.625ZM126.91 33.1953C126.91 32.4453 126.672 31.9062 126.195 31.5781C125.719 31.25 125.004 31.0859 124.051 31.0859H122.785V35.4102H123.957C124.402 35.4102 124.805 35.3633 125.164 35.2695C125.531 35.1758 125.844 35.0352 126.102 34.8477C126.359 34.6602 126.559 34.4297 126.699 34.1562C126.84 33.875 126.91 33.5547 126.91 33.1953ZM133.742 44V28.6836H142.965V31.1211H136.672V34.9297H142.672V37.3086H136.672V41.5625H142.965V44H133.742ZM154.742 44L153.898 40.9766H148.555L147.688 44H144.828L149.363 28.6836H153.395L157.93 44H154.742ZM151.262 31.4961L149.246 38.6211H153.254L151.262 31.4961ZM167.023 44L162.418 36.5938V44H159.488V28.6836H162.418V35.6562L167 28.6836H170.48L165.277 35.9844L170.75 44H167.023ZM172.93 31.0391V28.6836H182.609V31.0391H179.234V41.6211H182.609V44H172.93V41.6211H176.305V31.0391H172.93ZM193.039 44L188.938 34.8594L188.094 32.8906V39.2422V44H185.469V28.6836H189.008L193.191 37.8828L193.93 39.6758V32.9141V28.6836H196.555V44H193.039Z" fill="#FD9C26"/>
</svg>
