<svg width="289" height="76" viewBox="0 0 289 76" fill="none" xmlns="http://www.w3.org/2000/svg">
<path fill-rule="evenodd" clip-rule="evenodd" d="M53 37.9411L86.9411 4L100.882 17.9411H193L206.941 4L240.882 37.9411L206.941 71.8822L193 57.9411H100.882L86.9411 71.8822L53 37.9411Z" fill="#FD9C26"/>
<path d="M220 70L252 38" stroke="#FD9C26" stroke-opacity="0.25" stroke-width="8" stroke-linecap="square"/>
<path d="M73 6L41 38" stroke="#FD9C26" stroke-opacity="0.25" stroke-width="8" stroke-linecap="square"/>
<path d="M252 38L220 6" stroke="#FD9C26" stroke-width="8" stroke-linecap="square"/>
<path d="M41 38L73 70" stroke="#FD9C26" stroke-width="8" stroke-linecap="square"/>
<path d="M38 39L39 39L39 37L38 37L38 39ZM0.666667 38C0.666666 40.9455 3.05448 43.3333 6 43.3333C8.94552 43.3333 11.3333 40.9455 11.3333 38C11.3333 35.0545 8.94552 32.6667 6 32.6667C3.05448 32.6667 0.666667 35.0545 0.666667 38ZM38 37L6 37L6 39L38 39L38 37Z" fill="#FD9C26" fill-opacity="0.25"/>
<path d="M251 39L250 39L250 37L251 37L251 39ZM288.333 38C288.333 40.9455 285.946 43.3333 283 43.3333C280.054 43.3333 277.667 40.9455 277.667 38C277.667 35.0545 280.054 32.6667 283 32.6667C285.946 32.6667 288.333 35.0545 288.333 38ZM251 37L283 37L283 39L251 39L251 37Z" fill="#FD9C26" fill-opacity="0.25"/>
<path d="M106.211 33.5586C106.211 34.3555 106.078 35.0938 105.812 35.7734C105.547 36.4453 105.152 37.0273 104.629 37.5195C104.105 38.0117 103.453 38.3945 102.672 38.668C101.891 38.9414 100.984 39.0781 99.9531 39.0781H98.4883V44H95.582V28.6836H100.07C101.062 28.6836 101.938 28.793 102.695 29.0117C103.461 29.2227 104.102 29.5352 104.617 29.9492C105.141 30.3633 105.535 30.875 105.801 31.4844C106.074 32.0859 106.211 32.7773 106.211 33.5586ZM103.188 33.7578C103.188 33.3516 103.121 32.9844 102.988 32.6562C102.863 32.3203 102.668 32.0352 102.402 31.8008C102.145 31.5664 101.816 31.3867 101.418 31.2617C101.02 31.1367 100.547 31.0742 100 31.0742H98.4883V36.6875H100.094C100.594 36.6875 101.035 36.6211 101.418 36.4883C101.801 36.3477 102.121 36.1484 102.379 35.8906C102.645 35.6328 102.844 35.3242 102.977 34.9648C103.117 34.6055 103.188 34.2031 103.188 33.7578ZM116.395 44V37.332H111.191V44H108.309V28.6836H111.191V34.8359H116.395V28.6836H119.277V44H116.395ZM129.625 44L127.469 39.0781C127.266 38.6094 126.98 38.2578 126.613 38.0234C126.254 37.7812 125.828 37.6602 125.336 37.6602H124.785V44H121.902V28.6836H126.367C127.211 28.6836 127.977 28.7578 128.664 28.9062C129.352 29.0469 129.938 29.2852 130.422 29.6211C130.906 29.957 131.277 30.3945 131.535 30.9336C131.801 31.4727 131.934 32.1328 131.934 32.9141C131.934 33.4766 131.852 33.9766 131.688 34.4141C131.523 34.8516 131.293 35.2305 130.996 35.5508C130.699 35.8633 130.344 36.1172 129.93 36.3125C129.523 36.5078 129.078 36.6445 128.594 36.7227C128.969 36.8008 129.312 37.0156 129.625 37.3672C129.938 37.7109 130.25 38.2109 130.562 38.8672L133.012 44H129.625ZM128.91 33.1953C128.91 32.4453 128.672 31.9062 128.195 31.5781C127.719 31.25 127.004 31.0859 126.051 31.0859H124.785V35.4102H125.957C126.402 35.4102 126.805 35.3633 127.164 35.2695C127.531 35.1758 127.844 35.0352 128.102 34.8477C128.359 34.6602 128.559 34.4297 128.699 34.1562C128.84 33.875 128.91 33.5547 128.91 33.1953ZM135.742 44V28.6836H144.965V31.1211H138.672V34.9297H144.672V37.3086H138.672V41.5625H144.965V44H135.742ZM156.742 44L155.898 40.9766H150.555L149.688 44H146.828L151.363 28.6836H155.395L159.93 44H156.742ZM153.262 31.4961L151.246 38.6211H155.254L153.262 31.4961ZM169.023 44L164.418 36.5938V44H161.488V28.6836H164.418V35.6562L169 28.6836H172.48L167.277 35.9844L172.75 44H169.023ZM174.93 31.0391V28.6836H184.609V31.0391H181.234V41.6211H184.609V44H174.93V41.6211H178.305V31.0391H174.93ZM195.039 44L190.938 34.8594L190.094 32.8906V39.2422V44H187.469V28.6836H191.008L195.191 37.8828L195.93 39.6758V32.9141V28.6836H198.555V44H195.039Z" fill="black"/>
</svg>
