<svg width="613" height="222" viewBox="0 0 613 222" fill="none" xmlns="http://www.w3.org/2000/svg">
<g filter="url(#filter0_d_136_12059)">
<circle cx="29" cy="111.108" r="16" fill="white" fill-opacity="0.05" shape-rendering="crispEdges"/>
<circle cx="29" cy="111.108" r="15.6" stroke="white" stroke-width="0.8" stroke-dasharray="1.6 3.2" shape-rendering="crispEdges"/>
</g>
<path d="M29 92.799L26.6906 95.1084L29 97.4178L31.3094 95.1084L29 92.799ZM29 111.108H28.6V111.508H29V111.108ZM47.3094 111.108L45 108.799L42.6906 111.108L45 113.418L47.3094 111.108ZM29 95.1084H28.6V111.108H29H29.4V95.1084H29ZM29 111.108V111.508H45V111.108V110.708H29V111.108Z" fill="white"/>
<g filter="url(#filter1_d_136_12059)">
<circle cx="29" cy="29" r="16" fill="white" fill-opacity="0.05" shape-rendering="crispEdges"/>
<circle cx="29" cy="29" r="15.6" stroke="white" stroke-width="0.8" stroke-dasharray="1.6 3.2" shape-rendering="crispEdges"/>
</g>
<path d="M29 10.6906L26.6906 13L29 15.3094L31.3094 13L29 10.6906ZM29 29H28.6V29.4H29V29ZM47.3094 29L45 26.6906L42.6906 29L45 31.3094L47.3094 29ZM29 13H28.6V29H29H29.4V13H29ZM29 29V29.4H45V29V28.6H29V29Z" fill="white"/>
<path d="M53 110.5H146" stroke="white" stroke-opacity="0.25" stroke-dasharray="8 8"/>
<g filter="url(#filter2_d_136_12059)">
<rect x="29.5" y="168" width="31.8198" height="31.8198" transform="rotate(45 29.5 168)" fill="#FD9C26"/>
<rect x="29.5" y="166.586" width="33.8198" height="33.8198" transform="rotate(45 29.5 166.586)" stroke="black" stroke-width="2"/>
</g>
<rect x="20.2601" y="181.631" width="17.2432" height="17.2432" stroke="black" stroke-width="1.33333"/>
<path d="M23.9102 184.617L28.5505 189.258L23.9102 193.898" stroke="black" stroke-width="1.33333" stroke-linejoin="round"/>
<path d="M26.5615 195.887H33.8536" stroke="black" stroke-width="1.33333" stroke-linejoin="round"/>
<path d="M56 191H159.5C163.918 191 167.5 187.418 167.5 183V130" stroke="#FD9C26"/>
<path d="M56 29H159.5C163.918 29 167.5 32.5817 167.5 37V90" stroke="white" stroke-opacity="0.25" stroke-dasharray="8 8"/>
<g filter="url(#filter3_d_136_12059)">
<circle cx="168" cy="110" r="16" fill="#FD9C26"/>
<circle cx="168" cy="110" r="17" stroke="black" stroke-width="2"/>
</g>
<rect x="159.333" y="101.333" width="17.3333" height="17.3333" stroke="black" stroke-width="1.33333"/>
<path d="M163 104.333L167.667 109L163 113.667" stroke="black" stroke-width="1.33333" stroke-linejoin="round"/>
<path d="M165.667 115.667H173" stroke="black" stroke-width="1.33333" stroke-linejoin="round"/>
<rect x="233.5" y="29.5" width="277" height="161" rx="7.5" stroke="white" stroke-opacity="0.25" stroke-linecap="round" stroke-dasharray="8 8"/>
<rect x="568.5" y="29.5" width="277" height="161" rx="7.5" stroke="white" stroke-opacity="0.25" stroke-linecap="round" stroke-dasharray="8 8"/>
<g filter="url(#filter4_d_136_12059)">
<rect x="369.5" y="88" width="31.8198" height="31.8198" transform="rotate(45 369.5 88)" fill="#FD9C26"/>
<rect x="369.5" y="86.5858" width="33.8198" height="33.8198" transform="rotate(45 369.5 86.5858)" stroke="black" stroke-width="2"/>
</g>
<rect x="360.26" y="101.631" width="17.2432" height="17.2432" stroke="black" stroke-width="1.33333"/>
<path d="M363.91 104.617L368.551 109.258L363.91 113.898" stroke="black" stroke-width="1.33333" stroke-linejoin="round"/>
<path d="M366.562 115.887H373.854" stroke="black" stroke-width="1.33333" stroke-linejoin="round"/>
<g filter="url(#filter5_d_136_12059)">
<rect x="369.5" y="9" width="31.8198" height="31.8198" transform="rotate(45 369.5 9)" fill="#FD9C26"/>
<rect x="369.5" y="7.58579" width="33.8198" height="33.8198" transform="rotate(45 369.5 7.58579)" stroke="black" stroke-width="2"/>
</g>
<path d="M377.167 30.167H363.833C363.373 30.167 363 30.5401 363 31.0003V38.5003C363 38.9606 363.373 39.3337 363.833 39.3337H377.167C377.627 39.3337 378 38.9606 378 38.5003V31.0003C378 30.5401 377.627 30.167 377.167 30.167Z" stroke="black" stroke-width="1.66667" stroke-linejoin="round"/>
<path d="M366.333 30.167V26.8337C366.333 24.5325 368.199 22.667 370.5 22.667C372.801 22.667 374.666 24.5325 374.666 26.8337V30.167" stroke="black" stroke-width="1.66667" stroke-linecap="round" stroke-linejoin="round"/>
<path d="M370.5 33.5V36" stroke="black" stroke-width="1.66667" stroke-linecap="round" stroke-linejoin="round"/>
<g filter="url(#filter6_d_136_12059)">
<rect x="369.5" y="168" width="31.8198" height="31.8198" transform="rotate(45 369.5 168)" fill="#FD9C26"/>
<rect x="369.5" y="166.586" width="33.8198" height="33.8198" transform="rotate(45 369.5 166.586)" stroke="black" stroke-width="2"/>
</g>
<path d="M377.167 189.167H363.833C363.373 189.167 363 189.54 363 190V197.5C363 197.961 363.373 198.334 363.833 198.334H377.167C377.627 198.334 378 197.961 378 197.5V190C378 189.54 377.627 189.167 377.167 189.167Z" stroke="black" stroke-width="1.66667" stroke-linejoin="round"/>
<path d="M366.333 189.167V185.834C366.333 183.532 368.199 181.667 370.5 181.667C372.801 181.667 374.666 183.532 374.666 185.834V189.167" stroke="black" stroke-width="1.66667" stroke-linecap="round" stroke-linejoin="round"/>
<path d="M370.5 192.5V195" stroke="black" stroke-width="1.66667" stroke-linecap="round" stroke-linejoin="round"/>
<path d="M188 110.5L342.999 111" stroke="#FD9C26"/>
<path d="M531 110.5H677" stroke="white" stroke-opacity="0.25" stroke-dasharray="8 8"/>
<path d="M396 110.5H491" stroke="#FD9C26"/>
<g filter="url(#filter7_d_136_12059)">
<circle cx="511" cy="110" r="16" fill="#FD9C26"/>
<circle cx="511" cy="110" r="17" stroke="black" stroke-width="2"/>
</g>
<rect x="502.333" y="101.333" width="17.3333" height="17.3333" stroke="black" stroke-width="1.33333"/>
<path d="M506 104.333L510.667 109L506 113.667" stroke="black" stroke-width="1.33333" stroke-linejoin="round"/>
<path d="M508.667 115.667H516" stroke="black" stroke-width="1.33333" stroke-linejoin="round"/>
<defs>
<filter id="filter0_d_136_12059" x="9" y="91.1084" width="40" height="40" filterUnits="userSpaceOnUse" color-interpolation-filters="sRGB">
<feFlood flood-opacity="0" result="BackgroundImageFix"/>
<feColorMatrix in="SourceAlpha" type="matrix" values="0 0 0 0 0 0 0 0 0 0 0 0 0 0 0 0 0 0 127 0" result="hardAlpha"/>
<feOffset/>
<feGaussianBlur stdDeviation="2"/>
<feComposite in2="hardAlpha" operator="out"/>
<feColorMatrix type="matrix" values="0 0 0 0 1 0 0 0 0 1 0 0 0 0 1 0 0 0 1 0"/>
<feBlend mode="normal" in2="BackgroundImageFix" result="effect1_dropShadow_136_12059"/>
<feBlend mode="normal" in="SourceGraphic" in2="effect1_dropShadow_136_12059" result="shape"/>
</filter>
<filter id="filter1_d_136_12059" x="9" y="9" width="40" height="40" filterUnits="userSpaceOnUse" color-interpolation-filters="sRGB">
<feFlood flood-opacity="0" result="BackgroundImageFix"/>
<feColorMatrix in="SourceAlpha" type="matrix" values="0 0 0 0 0 0 0 0 0 0 0 0 0 0 0 0 0 0 127 0" result="hardAlpha"/>
<feOffset/>
<feGaussianBlur stdDeviation="2"/>
<feComposite in2="hardAlpha" operator="out"/>
<feColorMatrix type="matrix" values="0 0 0 0 1 0 0 0 0 1 0 0 0 0 1 0 0 0 1 0"/>
<feBlend mode="normal" in2="BackgroundImageFix" result="effect1_dropShadow_136_12059"/>
<feBlend mode="normal" in="SourceGraphic" in2="effect1_dropShadow_136_12059" result="shape"/>
</filter>
<filter id="filter2_d_136_12059" x="0.171387" y="161.172" width="58.6572" height="58.6567" filterUnits="userSpaceOnUse" color-interpolation-filters="sRGB">
<feFlood flood-opacity="0" result="BackgroundImageFix"/>
<feColorMatrix in="SourceAlpha" type="matrix" values="0 0 0 0 0 0 0 0 0 0 0 0 0 0 0 0 0 0 127 0" result="hardAlpha"/>
<feOffset/>
<feGaussianBlur stdDeviation="2"/>
<feComposite in2="hardAlpha" operator="out"/>
<feColorMatrix type="matrix" values="0 0 0 0 0.992157 0 0 0 0 0.611765 0 0 0 0 0.14902 0 0 0 1 0"/>
<feBlend mode="normal" in2="BackgroundImageFix" result="effect1_dropShadow_136_12059"/>
<feBlend mode="normal" in="SourceGraphic" in2="effect1_dropShadow_136_12059" result="shape"/>
</filter>
<filter id="filter3_d_136_12059" x="146" y="88" width="44" height="44" filterUnits="userSpaceOnUse" color-interpolation-filters="sRGB">
<feFlood flood-opacity="0" result="BackgroundImageFix"/>
<feColorMatrix in="SourceAlpha" type="matrix" values="0 0 0 0 0 0 0 0 0 0 0 0 0 0 0 0 0 0 127 0" result="hardAlpha"/>
<feOffset/>
<feGaussianBlur stdDeviation="2"/>
<feComposite in2="hardAlpha" operator="out"/>
<feColorMatrix type="matrix" values="0 0 0 0 0.992157 0 0 0 0 0.611765 0 0 0 0 0.14902 0 0 0 1 0"/>
<feBlend mode="normal" in2="BackgroundImageFix" result="effect1_dropShadow_136_12059"/>
<feBlend mode="normal" in="SourceGraphic" in2="effect1_dropShadow_136_12059" result="shape"/>
</filter>
<filter id="filter4_d_136_12059" x="340.171" y="81.1716" width="58.6572" height="58.6567" filterUnits="userSpaceOnUse" color-interpolation-filters="sRGB">
<feFlood flood-opacity="0" result="BackgroundImageFix"/>
<feColorMatrix in="SourceAlpha" type="matrix" values="0 0 0 0 0 0 0 0 0 0 0 0 0 0 0 0 0 0 127 0" result="hardAlpha"/>
<feOffset/>
<feGaussianBlur stdDeviation="2"/>
<feComposite in2="hardAlpha" operator="out"/>
<feColorMatrix type="matrix" values="0 0 0 0 0.992157 0 0 0 0 0.611765 0 0 0 0 0.14902 0 0 0 1 0"/>
<feBlend mode="normal" in2="BackgroundImageFix" result="effect1_dropShadow_136_12059"/>
<feBlend mode="normal" in="SourceGraphic" in2="effect1_dropShadow_136_12059" result="shape"/>
</filter>
<filter id="filter5_d_136_12059" x="340.171" y="2.17163" width="58.6572" height="58.6567" filterUnits="userSpaceOnUse" color-interpolation-filters="sRGB">
<feFlood flood-opacity="0" result="BackgroundImageFix"/>
<feColorMatrix in="SourceAlpha" type="matrix" values="0 0 0 0 0 0 0 0 0 0 0 0 0 0 0 0 0 0 127 0" result="hardAlpha"/>
<feOffset/>
<feGaussianBlur stdDeviation="2"/>
<feComposite in2="hardAlpha" operator="out"/>
<feColorMatrix type="matrix" values="0 0 0 0 0.992157 0 0 0 0 0.611765 0 0 0 0 0.14902 0 0 0 1 0"/>
<feBlend mode="normal" in2="BackgroundImageFix" result="effect1_dropShadow_136_12059"/>
<feBlend mode="normal" in="SourceGraphic" in2="effect1_dropShadow_136_12059" result="shape"/>
</filter>
<filter id="filter6_d_136_12059" x="340.171" y="161.172" width="58.6572" height="58.6567" filterUnits="userSpaceOnUse" color-interpolation-filters="sRGB">
<feFlood flood-opacity="0" result="BackgroundImageFix"/>
<feColorMatrix in="SourceAlpha" type="matrix" values="0 0 0 0 0 0 0 0 0 0 0 0 0 0 0 0 0 0 127 0" result="hardAlpha"/>
<feOffset/>
<feGaussianBlur stdDeviation="2"/>
<feComposite in2="hardAlpha" operator="out"/>
<feColorMatrix type="matrix" values="0 0 0 0 0.992157 0 0 0 0 0.611765 0 0 0 0 0.14902 0 0 0 1 0"/>
<feBlend mode="normal" in2="BackgroundImageFix" result="effect1_dropShadow_136_12059"/>
<feBlend mode="normal" in="SourceGraphic" in2="effect1_dropShadow_136_12059" result="shape"/>
</filter>
<filter id="filter7_d_136_12059" x="489" y="88" width="44" height="44" filterUnits="userSpaceOnUse" color-interpolation-filters="sRGB">
<feFlood flood-opacity="0" result="BackgroundImageFix"/>
<feColorMatrix in="SourceAlpha" type="matrix" values="0 0 0 0 0 0 0 0 0 0 0 0 0 0 0 0 0 0 127 0" result="hardAlpha"/>
<feOffset/>
<feGaussianBlur stdDeviation="2"/>
<feComposite in2="hardAlpha" operator="out"/>
<feColorMatrix type="matrix" values="0 0 0 0 0.992157 0 0 0 0 0.611765 0 0 0 0 0.14902 0 0 0 1 0"/>
<feBlend mode="normal" in2="BackgroundImageFix" result="effect1_dropShadow_136_12059"/>
<feBlend mode="normal" in="SourceGraphic" in2="effect1_dropShadow_136_12059" result="shape"/>
</filter>
</defs>
</svg>
