<svg width="32" height="32" viewBox="0 0 32 32" fill="none" xmlns="http://www.w3.org/2000/svg">
  <circle cx="16" cy="16" r="16" fill="#26A17B"/>
  <path d="M17.96 15.36V12.36H19.52V11.2H12.56V12.36H14.04V15.36C9.68 15.8 6.4 16.96 6.4 18.4C6.4 19.84 9.68 21 14.04 21.44V26.16H17.96V21.44C22.32 21 25.6 19.84 25.6 18.4C25.6 16.96 22.32 15.8 17.96 15.36ZM16 20.32C11.48 20.32 7.84 19.32 7.84 18.08C7.84 16.84 11.48 15.84 16 15.84C20.52 15.84 24.16 16.84 24.16 18.08C24.16 19.32 20.52 20.32 16 20.32Z" fill="white"/>
</svg> 