<svg width="416" height="416" viewBox="0 0 416 416" fill="none" xmlns="http://www.w3.org/2000/svg">
<path d="M129.905 77.5949C152.582 64.0146 178.408 56.5825 204.834 56.0321C231.261 55.4817 257.374 61.8322 280.597 74.4567L207.999 207.999L129.905 77.5949Z" fill="#38ED90" fill-opacity="0.15" stroke="#38ED90" stroke-width="4"/>
<circle cx="207.999" cy="55.999" r="4" fill="#38ED90"/>
<circle cx="129" cy="77" r="5" fill="#38ED90"/>
<circle cx="281" cy="75" r="5" fill="#38ED90"/>
<path d="M213.195 62.999C210.886 66.999 205.112 66.999 202.803 62.999L191.545 43.499C189.235 39.499 192.122 34.499 196.741 34.499L219.257 34.499C223.876 34.499 226.763 39.499 224.454 43.499L213.195 62.999Z" fill="#38ED90"/>
<path d="M212.762 62.749C210.645 66.4154 205.353 66.4154 203.236 62.749L191.978 43.249C189.861 39.5825 192.507 34.9994 196.74 34.999L219.258 34.999C223.491 34.9994 226.137 39.5825 224.021 43.249L212.762 62.749Z" stroke="white" stroke-opacity="0.49"/>
<path d="M199.001 192.413C207.61 187.443 218.619 190.393 223.589 199.002C228.56 207.611 225.61 218.62 217.001 223.59C208.391 228.561 197.383 225.611 192.412 217.002C187.442 208.393 190.391 197.384 199.001 192.413Z" fill="#38ED90" stroke="white" stroke-width="4"/>
<path d="M216.661 203.002C219.423 207.785 217.784 213.901 213.001 216.662C208.218 219.424 202.102 217.785 199.341 213.002C196.579 208.219 198.218 202.103 203.001 199.342C207.784 196.58 213.9 198.219 216.661 203.002Z" fill="white"/>
</svg>
